<svg width="17" height="17" viewBox="0 0 17 17" fill="none" xmlns="http://www.w3.org/2000/svg">
<path d="M11.0093 1.8441C12.0546 2.86435 12.7089 4.20357 12.8627 5.63775C13.0164 7.07192 12.6603 8.51407 11.8539 9.72295C11.9947 9.8373 12.112 9.96309 12.2762 10.0774C12.5108 10.2604 12.8276 10.4891 13.2264 10.7521C13.6252 11.0266 13.8833 11.1981 14.0006 11.2896C14.4933 11.6441 14.857 11.9414 15.1033 12.1815C15.4787 12.5474 15.8072 12.9248 16.0887 13.325C16.382 13.7253 16.6048 14.1141 16.7808 14.5143C16.945 14.9145 17.0272 15.2919 16.992 15.6578C16.9685 16.0237 16.8277 16.3325 16.5697 16.5841C16.3116 16.8356 15.9948 16.9729 15.6195 16.9957C15.2558 17.0186 14.857 16.95 14.4581 16.7785C14.0475 16.6184 13.637 16.3897 13.2381 16.1038C12.8276 15.8293 12.4404 15.5092 12.0651 15.1432C11.8187 14.9031 11.5137 14.5486 11.1618 14.0798C11.0445 13.9311 10.8685 13.6795 10.6104 13.325C10.3524 12.9591 10.1412 12.6732 9.95352 12.4331C9.76583 12.2044 9.61333 12.0329 9.43737 11.8613C8.21978 12.4828 6.83047 12.7093 5.4717 12.5077C4.11293 12.3062 2.85562 11.6871 1.88278 10.7407C-0.627594 8.28212 -0.627594 4.29123 1.88278 1.8441C2.48178 1.2595 3.19311 0.795721 3.97611 0.479295C4.75911 0.16287 5.59842 0 6.44603 0C7.29365 0 8.13296 0.16287 8.91596 0.479295C9.69895 0.795721 10.4103 1.2595 11.0093 1.8441ZM9.35526 9.11689C10.1216 8.36438 10.5517 7.34703 10.5517 6.28667C10.5517 5.22632 10.1216 4.20897 9.35526 3.45646C8.97439 3.08409 8.52188 2.78864 8.02367 2.58705C7.52545 2.38546 6.99133 2.28169 6.4519 2.28169C5.91247 2.28169 5.37835 2.38546 4.88013 2.58705C4.38192 2.78864 3.92941 3.08409 3.54855 3.45646C3.16655 3.82774 2.86346 4.26884 2.65666 4.75451C2.44986 5.24017 2.34341 5.76084 2.34341 6.28667C2.34341 6.81251 2.44986 7.33318 2.65666 7.81884C2.86346 8.30451 3.16655 8.74561 3.54855 9.11689C3.92941 9.48926 4.38192 9.78471 4.88013 9.9863C5.37835 10.1879 5.91247 10.2917 6.4519 10.2917C6.99133 10.2917 7.52545 10.1879 8.02367 9.9863C8.52188 9.78471 8.97439 9.48926 9.35526 9.11689Z" fill="#FFFBF0"/>
</svg>
